<?xml version="1.0" encoding="utf-8"?>
<!-- Generator: Adobe Illustrator 25.1.0, SVG Export Plug-In . SVG Version: 6.00 Build 0)  -->
<svg version="1.1" id="Layer_1" xmlns="http://www.w3.org/2000/svg" xmlns:xlink="http://www.w3.org/1999/xlink" x="0px" y="0px"
	 viewBox="0 0 350 612" style="enable-background:new 0 0 350 612;" xml:space="preserve">
<style type="text/css">
	.st0{fill:#F2F1EB;}
	.st1{fill:none;}
	.st2{fill:#FBB317;}
	.st3{fill:#F26F8A;}
	.st4{fill:#F6A1AE;}
	.st5{fill:#4779BD;}
</style>
<polygon class="st0" points="349.98,0 349.98,619.01 2.32,619.01 2.32,376.91 2.32,0 "/>
<path class="st1" d="M1.66,214.63c0,0,18.84,29.1,37.99,26.04s37.53-13.79,38.29-26.04s-19.55-49.78-13.6-52.85
	c5.94-3.06,12.84-18.6,32.75-11.98s15.32,17.34,35.23,15.81c19.91-1.53,15.32-49.02,9.96-53.61c-5.36-4.6-8.74-11.45-26.81-9.27
	c-18.07,2.18-16.85-44.34-16.85-44.34s-14.52-19.09-34.28,0S48.08,28.13,48.08,28.13s-20.07-26.42-46.41,0V214.63z"/>
<path class="st2" d="M239.8,0v91.37c0,0,0,20.46,10.78,14.49c10.78-5.97,5.99-15.55,4.79-35.91s-5.39-40.53,2.1-52
	c7.48-11.47,29.04-6.68,31.44,20.86c2.4,27.54,0,147.96,0,147.96s5.99,27.67,23.95,3.32c0,0-10.78-126.14,0-150.09
	s20.35,34.73,28.74,34.73c8.39,0,8.39-5.99,8.39-5.99V0H239.8z"/>
<path class="st3" d="M168.8,415.85c0,0-21.87,7.68-21.91,20.77c-0.04,13.09,13.59,13.31,21.91,20.77
	c8.32,7.46,27.03-12.13,29.7-13.02c2.67-0.89-10.69-12.69-15.14-20.15C178.91,416.75,168.8,415.85,168.8,415.85z"/>
<path class="st4" d="M349.98,186.42c0,0-34.86,15.97-40.84,48.73c-3.08,29.29-68.99,39.5-83.06,32.18c0,0-11.67-2.22-43.34-26.44
	c0,0-49.65-38.01-67.46-5.92l-6.21,374.59l240.91,9.44V186.42z"/>
<path class="st5" d="M1.16,214.63c0,0,59.89-29.21,87.2-14.5c27.31,14.7,43.38,36.21,45.75,67.07s29.03,150.83,59.59,145.4
	c30.56-5.43,78.03-3.52,87.13,19s-0.22,51.25,18.36,70.63s50.29-31.21,50.29-31.21v147.99H1.82L1.16,214.63z"/>
<path class="st3" d="M0.38,109.72c0,0,5.04-34.93,20.35-33.84c15.3,1.09,27.33,2.09,29.52,33.84s-17.49,84.06-6.56,114.76
	s89.64,42.72,89.64,42.72s130.09-4.51,94.02,121.82c0,0-29.52,124.15,0,137.27c0,0,19.68,22.96,38.26,21.86s32.8-24.65,51.38-26.54
	c18.58-1.89,31.71,5.77,31.71,5.77v91.63H1.04L0.72,376.91L0.38,109.72z"/>
<path class="st4" d="M42.65,282.45c0,0,29.91-19.46,26.01,52.69s13,76.25,20.81,77.45s20.81,6.99,36.41-10.21
	c15.61-17.2,69.81-27.97,81.93,0c12.12,27.97-13.53,119.22,48.12,119.22s79.33,96.12,79.33,96.12L1.62,619.01L0.96,330.29
	c0,0,22.18-22.05,24.78,35.93c0,0,6.5,19.63,18.21,13.45S27.04,300.66,42.65,282.45z"/>
<path class="st2" d="M2.32,457.39c0,0,13.61-28.76,40.32-25.79s39.19,2.97,42.75,33.25s1.78,44.53,14.25,65.91
	c0,0,36.57,45.42,76.18,31.17c0,0,68.88-39.88,109.08-9.8c0,0,37.02,32.95,51.05,30.28s14.03-2.67,14.03-2.67v39.26H2.32V457.39z"/>
<path class="st3" d="M146.89,436.62c0,0,9.79,19.62,21.91,20.77c12.13,1.14,25.43-19.92,25.43-19.92l-25.43-21.61
	C168.8,415.85,141.77,419.81,146.89,436.62z"/>
<path class="st2" d="M214.34,0c0,0,25.45,15.3,25.45,41V0H214.34z"/>
</svg>
