<?xml version="1.0" encoding="utf-8"?>
<!-- Generator: Adobe Illustrator 25.1.0, SVG Export Plug-In . SVG Version: 6.00 Build 0)  -->
<svg version="1.1" id="Layer_1" xmlns="http://www.w3.org/2000/svg" xmlns:xlink="http://www.w3.org/1999/xlink" x="0px" y="0px"
	 viewBox="0 0 350 612" style="enable-background:new 0 0 350 612;" xml:space="preserve">
<style type="text/css">
	.st0{fill:#F2F1EB;}
	.st1{fill:#F6A1AE;}
	.st2{fill:none;}
	.st3{font-family:'ArialMT';}
	.st4{font-size:12px;}
	.st5{fill:#4779BD;}
	.st6{fill:#FBB317;}
	.st7{fill:#F26F8A;}
</style>
<polygon class="st0" points="344.46,5.89 344.46,619.15 0.03,619.15 0.03,379.3 0.03,194.33 0.03,5.89 "/>
<path class="st1" d="M2.85,105.41"/>
<path class="st0" d="M165.57,357.22c0,0-4.91-16.29-14.52-9.39s-14.96,8.53-11.36,17.57s1.57,10.9-1.31,14s5.8,14.9,10.78,11.17
	s6.26-11.02,10.65-16.46C164.18,368.67,165.57,357.22,165.57,357.22z"/>
<path id="SVGID_x5F_1_x5F_" class="st2" d="M63.05,260.8c0,0,36.9-15.53,67.5-14.17c30.61,1.36,46.86-31.19,46.86-31.19
	s9.98-17.07,26.05-19.66"/>
<text transform="matrix(0.9899 -0.1419 0.1419 0.9899 108.3349 248.0636)" class="st3 st4"> </text>
<text class="st3 st4"> </text>
<path class="st5" d="M133.25,430.09c0,0-13.75,11.44-6.42,23.63s22.85,0.79,24.86-8.16s7.76-27.68,0-27.68
	C143.92,417.88,133.25,430.09,133.25,430.09z"/>
<path class="st6" d="M342.93,348.56c0,0-30.11-68.76-56.99-62.43c-26.88,6.32,2.03,77.79-10.62,86.48c0,0-1.82,31.18-33.45,23.28
	c0,0-37.94-16.89-53.06-4.59s-32.97-9.57-50.43-11.89s-8.12,8.61-20.77,10.62c-12.65,2.02-37.16,23.37-37.16,23.37L76.5,617.89
	h269.61L342.93,348.56z"/>
<path class="st5" d="M-9.05,363.6c0,0,0.38-52.68,19.26-56.46s29,54.85,39.24,64.29s31.01,18.89,48.01,9.44
	c17-9.44,44.31-0.42,50.48,20.09s23.17,183.87,23.17,183.87l7.55,29.19H-8.4L-9.05,363.6z"/>
<path class="st6" d="M2.87,491.14c0,0,25.09-50.47,51.14-34.19s5.14,78.96,20.48,90.36c15.34,11.4,45.42,23.61,61.31,0
	s52.34,7.33,54.47,22.79c2.13,15.47,26.55,43.68,50.97,41.78c24.42-1.9,38.26-5.56,57.8,7.26H3.2L2.87,491.14z"/>
<path class="st7" d="M349.46,207.08c0,0-12.86-21.29-30.31-16.42c0,0-19.64,3.05-21.82,16.42c-2.18,13.37,13.03,87.83,7.29,133.93
	s-32.52,97.42-72.69,100.27s-46.87-31.36-61.21-37.06c-14.35-5.7-46.87-11.4-57.39,6.65s-12.43,60.82,6.7,94.07
	s-10.9,51.07-29.83,52.97c-18.94,1.9-26.82-12.85-62.2,11.85l-14.49,49.38l335.96-5.11V207.08H349.46z"/>
<path class="st1" d="M349.46,445.56c0,0-10.39-23.61-23.48-18.72c-13.09,4.88-12.28,21.98-12.28,21.98s13.09,80.59,5.73,92.8
	c0,0-26.19,23.61-46.65-13.84c0,0-4.91-43.14-20.46-46.4c0,0-24.55-7.16-28.64,6.19s21.28,82.54,4.91,81.73
	c0,0-35.79,24.92-57.17-23.77c0,0-24.89-78.28-48.1-69.99s-37.94,9.32-42.03,60.9s-15.55,70.3-40.92,62.16s-29.46-44.77-30.28-56.17
	c-0.82-11.4-7.22-15.47-7.22-15.47l0.33,92.19h346.26L349.46,445.56L349.46,445.56z"/>
<path class="st7" d="M289.82,585.4c0,0,9.77-5.63,17.79-6.96c8.01-1.33,12.68,2.01,18.59,10.61s0.93,18.1-10.95,14.79
	s-19.22-6.22-22.79-7.23C288.89,595.6,281.33,589.5,289.82,585.4z"/>
<path class="st5" d="M151.04,421.35c0,0-12.31-14.14-21.79-1.31c-9.48,12.84-7.25,10.11-8.55,13.53c-1.3,3.43-4.78,13.64-0.43,16.16
	c4.34,2.52,10.49,3.98,14.05,0.54s10-15.8,11.81-15.98C147.93,434.11,152.12,427.85,151.04,421.35z"/>
<path class="st5" d="M198.23,61.07c0,0-11.23,32.3-16.15,33.7c-4.91,1.4-37.94,21.06-47.4-25.98c0,0-23.51-5.62-26.32,7.02
	s-7.72,33.7-13.34,35.81s-11.48,18.91-37.21,0l-27.38,2.97L2.85,174.81V2.24l189.73,13.89L198.23,61.07z"/>
<path class="st1" d="M31.75,227.28c19.45-1.03,19.18-26.61,19.18-33.96s-1.43-45.54-1.09-68.25c0.33-22.71,15.19-44.75,35.81-41.41
	c20.63,3.34,50.02-0.67,56.03-8.68s11.84-34.73,30.97-29.39s15.55,46.89,15.34,56.51s-15.58,97.12-3.55,101.79
	c12.02,4.68,25.38,4.01,27.39-9.35s-8.68-102.86-8.68-106.2s-3.51-40.14,8.93-43.45c12.44-3.31,27.8-40.57,27.8-43.65
	s-239.01,0-239.01,0v186.58C0.85,187.83,7.7,228.56,31.75,227.28z"/>
<path class="st7" d="M148.05,5.89c0,0,18.38,21.73,12.28,35.05s-7.01,22.93-27.88,17.75s-35.4-21.45-49.01-20.71
	c-13.61,0.74-23.6,22.93-21.78,38.46s3.71,78.11,0.99,84.76c-2.72,6.66-27.3,14.35-30.03-12.28s4.54-48.08-4.54-56.21
	S3.51,88.89,1.05,97.15S1.46,5.89,1.46,5.89H148.05z"/>
<path class="st6" d="M-4.04,19.98c0,0,8.27,40.27,28.99,41.48s44.71-4.3,48.15,13.76s28.2,29.24,36.46,25.8s28.64-2.16,33.07-40.21
	s23.34-41.03,30.22-40.83c6.88,0.2,24.08,23.41,37.84,22.56S231.32-7.9,231.32-7.9H-3.39L-4.04,19.98z"/>
</svg>
